<svg width="26" height="27" viewBox="0 0 26 27" fill="none" xmlns="http://www.w3.org/2000/svg">
<path d="M13.1101 0.631348C6.10001 0.631348 0.419922 6.30919 0.419922 13.3165V13.3265C0.419922 20.3239 6.10001 26.0017 13.1001 26.0017H13.1101C20.1102 26.0017 25.7903 20.3239 25.7903 13.3265V13.3165C25.7903 6.30919 20.1102 0.631348 13.1101 0.631348ZM17.1102 8.50836H15.6601C14.5201 8.50836 14.3001 9.04815 14.3001 9.83785V11.5872H17.0202L16.6702 14.3261H14.3101V21.3535H11.4801V14.3261H9.10005V11.5872H11.4701V9.57795C11.4701 7.22884 12.9001 5.95933 14.9901 5.95933C15.9901 5.95933 16.8502 6.0293 17.1002 6.06928V8.50836H17.1102Z" fill="#00314F"/>
</svg>
