<svg width="26" height="27" viewBox="0 0 26 27" fill="none" xmlns="http://www.w3.org/2000/svg">
<path d="M13.3204 15.4914C14.5189 15.4914 15.4905 14.5199 15.4905 13.3214C15.4905 12.1229 14.5189 11.1514 13.3204 11.1514C12.1219 11.1514 11.1504 12.1229 11.1504 13.3214C11.1504 14.5199 12.1219 15.4914 13.3204 15.4914Z" fill="#00314F"/>
<path d="M18.3899 9.48147C18.2699 9.18146 18.1299 8.96146 17.8999 8.73146C17.6699 8.50145 17.4599 8.36145 17.1499 8.24145C16.9199 8.15145 16.5799 8.04145 15.9398 8.02145C15.2498 7.99145 15.0498 7.98145 13.3098 7.98145C11.5698 7.98145 11.3698 7.99145 10.6798 8.02145C10.0498 8.05145 9.69975 8.15145 9.46975 8.24145C9.16974 8.36145 8.94974 8.50145 8.71974 8.73146C8.48973 8.96146 8.34973 9.17146 8.22973 9.48147C8.13973 9.71147 8.02973 10.0515 8.00973 10.6915C7.97973 11.3815 7.96973 11.5815 7.96973 13.3215C7.96973 15.0615 7.97973 15.2616 8.00973 15.9516C8.03973 16.5816 8.13973 16.9316 8.22973 17.1616C8.34973 17.4616 8.48973 17.6816 8.71974 17.9116C8.94974 18.1416 9.15974 18.2816 9.46975 18.4016C9.69975 18.4916 10.0398 18.6016 10.6798 18.6216C11.3698 18.6516 11.5698 18.6616 13.3098 18.6616C15.0498 18.6616 15.2498 18.6516 15.9398 18.6216C16.5699 18.5916 16.9199 18.4916 17.1499 18.4016C17.4499 18.2816 17.6699 18.1416 17.8999 17.9116C18.1299 17.6816 18.2699 17.4716 18.3899 17.1616C18.4799 16.9316 18.5899 16.5916 18.6099 15.9516C18.6399 15.2616 18.6499 15.0615 18.6499 13.3215C18.6499 11.5815 18.6399 11.3815 18.6099 10.6915C18.5799 10.0515 18.4799 9.71147 18.3899 9.48147ZM13.3198 16.6616C11.4698 16.6616 9.97976 15.1616 9.97976 13.3215C9.97976 11.4815 11.4798 9.98147 13.3198 9.98147C15.1598 9.98147 16.6599 11.4815 16.6599 13.3215C16.6599 15.1616 15.1598 16.6616 13.3198 16.6616ZM16.7899 10.6315C16.3599 10.6315 16.0098 10.2815 16.0098 9.85147C16.0098 9.42147 16.3599 9.07146 16.7899 9.07146C17.2199 9.07146 17.5699 9.42147 17.5699 9.85147C17.5699 10.2815 17.2199 10.6315 16.7899 10.6315Z" fill="#00314F"/>
<path d="M13.3201 0.631348C6.30997 0.631348 0.629883 6.31143 0.629883 13.3215V13.3315C0.629883 20.3316 6.30997 26.0117 13.3101 26.0117H13.3201C20.3202 26.0117 26.0003 20.3316 26.0003 13.3315V13.3215C26.0003 6.31143 20.3202 0.631348 13.3201 0.631348ZM19.7802 16.0016C19.7502 16.6916 19.6402 17.1716 19.4802 17.5816C19.3102 18.0116 19.0902 18.3716 18.7301 18.7316C18.3701 19.0916 18.0101 19.3116 17.5801 19.4816C17.1701 19.6416 16.6901 19.7516 16.0001 19.7816C15.3101 19.8116 15.0801 19.8216 13.3201 19.8216C11.56 19.8216 11.33 19.8116 10.64 19.7816C9.95002 19.7516 9.47001 19.6416 9.06001 19.4816C8.63 19.3116 8.26999 19.0916 7.90999 18.7316C7.54998 18.3716 7.32998 18.0116 7.15998 17.5816C6.99998 17.1716 6.88997 16.6916 6.85997 16.0016C6.82997 15.3116 6.81997 15.0816 6.81997 13.3215C6.81997 11.5515 6.82997 11.3315 6.85997 10.6415C6.88997 9.95148 6.99998 9.47148 7.15998 9.06147C7.32998 8.63146 7.54998 8.27146 7.90999 7.91145C8.26999 7.55145 8.63 7.33145 9.06001 7.16144C9.47001 7.00144 9.95002 6.89144 10.64 6.86144C11.33 6.83144 11.56 6.82144 13.3201 6.82144C15.0801 6.82144 15.3101 6.83144 16.0001 6.86144C16.6901 6.89144 17.1701 7.00144 17.5801 7.16144C18.0101 7.33145 18.3701 7.55145 18.7301 7.91145C19.0902 8.27146 19.3102 8.63146 19.4802 9.06147C19.6402 9.47148 19.7502 9.95148 19.7802 10.6415C19.8102 11.3315 19.8202 11.5615 19.8202 13.3215C19.8202 15.0816 19.8202 15.3116 19.7802 16.0016Z" fill="#00314F"/>
</svg>
