<svg id="logo" width="135" height="43" viewBox="0 0 135 43" fill="none" xmlns="http://www.w3.org/2000/svg">
<path fill-rule="evenodd" clip-rule="evenodd" d="M42.0333 8.25112H42.9658V5.821H44.4634C45.6785 5.821 46.5262 4.97328 46.5262 3.72996C46.5262 2.48664 45.6785 1.66718 44.4634 1.66718H42.0333V8.25112ZM42.9658 5.02979V2.48664H44.3221C45.0851 2.48664 45.5937 2.96701 45.5937 3.75822C45.5937 4.54942 45.0851 5.05805 44.3221 5.05805L42.9658 5.02979ZM47.2891 4.91677C47.2891 6.86652 48.7868 8.36415 50.68 8.36415C52.5733 8.36415 54.0709 6.83826 54.0709 4.91677C54.0709 3.02353 52.6015 1.55415 50.68 1.55415C48.7585 1.55415 47.2609 3.02353 47.2891 4.91677ZM48.2216 4.91677C48.2216 3.47565 49.2954 2.40187 50.6518 2.40187C52.0081 2.40187 53.0819 3.5039 53.0819 4.91677C53.0819 6.38614 52.0081 7.51643 50.6518 7.51643C49.3237 7.51643 48.2216 6.38614 48.2216 4.91677ZM54.9751 4.91677C54.9751 6.83826 56.3032 8.36415 58.366 8.36415C59.5245 8.36415 60.344 7.88378 60.9092 7.31863L60.4005 6.64046C59.8636 7.17735 59.1007 7.48818 58.366 7.48818C56.8401 7.48818 55.9076 6.27311 55.9076 4.88851C55.9076 3.5039 56.8118 2.37361 58.3377 2.37361C59.0159 2.37361 59.7506 2.65619 60.231 3.08004L60.7113 2.40187C60.0897 1.78021 59.1572 1.52589 58.3095 1.52589C56.3597 1.55415 54.9751 3.02353 54.9751 4.91677ZM61.5026 4.91677C61.5026 6.83826 62.8307 8.36415 64.8934 8.36415C66.052 8.36415 66.8714 7.88378 67.4366 7.31863L66.9279 6.64046C66.3911 7.17735 65.6281 7.48818 64.8934 7.48818C63.3675 7.48818 62.435 6.27311 62.435 4.88851C62.435 3.5039 63.3393 2.37361 64.8652 2.37361C65.5433 2.37361 66.278 2.65619 66.7584 3.08004L67.2388 2.40187C66.6171 1.78021 65.6846 1.52589 64.8369 1.52589C62.8872 1.55415 61.5026 3.02353 61.5026 4.91677ZM68.5951 8.25112H69.4994L72.4381 3.98428C72.6642 3.61693 72.975 3.02353 72.975 3.02353H73.0033C73.0033 3.02353 72.9468 3.61693 72.9468 3.98428V8.25112H73.851V1.66718H72.9468L70.0645 5.93403C69.8384 6.30137 69.4994 6.89478 69.4994 6.89478H69.4711C69.4711 6.89478 69.5276 6.30137 69.5276 5.93403V1.66718H68.5951V8.25112ZM78.3156 1.35635C79.0503 1.35635 79.7002 0.932491 79.7002 0.169545V0.028259H78.9938V0.141286C78.9938 0.565145 78.6547 0.762945 78.3156 0.762945C77.9765 0.762945 77.6657 0.565145 77.6657 0.141286V0H76.931V0.141286C76.931 0.93249 77.5809 1.35635 78.3156 1.35635ZM75.6312 8.25112H76.5354L79.4742 3.98428C79.7002 3.61693 80.0393 3.02353 80.0393 3.02353H80.0676C80.0676 3.02353 80.0111 3.61693 80.0111 3.98428V8.25112H80.9153V1.66718H80.0111L77.0723 5.93403C76.8462 6.30137 76.5072 6.89478 76.5072 6.89478H76.4789C76.4789 6.89478 76.5354 6.30137 76.5354 5.93403V1.66718H75.6029V8.25112H75.6312ZM82.2434 4.91677C82.2434 6.83826 83.5715 8.36415 85.6343 8.36415C86.7928 8.36415 87.6123 7.88378 88.1774 7.31863L87.697 6.64046C87.1601 7.17735 86.3972 7.48818 85.6625 7.48818C84.1366 7.48818 83.2041 6.27311 83.2041 4.88851C83.2041 3.5039 84.1084 2.37361 85.6343 2.37361C86.3124 2.37361 87.0471 2.65619 87.5558 3.08004L88.0361 2.40187C87.4145 1.78021 86.482 1.52589 85.6343 1.52589C83.6563 1.55415 82.2434 3.02353 82.2434 4.91677ZM89.3642 8.25112H90.2967V5.22759H91.2857L93.0377 8.25112H94.0832L92.0487 4.80374V4.77548L93.9701 1.63892H92.9529L91.2857 4.40813H90.2967V1.63892H89.3642V8.25112ZM95.1004 8.25112H96.0047L98.9434 3.98428C99.1695 3.61693 99.5086 3.02353 99.5086 3.02353H99.5368C99.5368 3.02353 99.4803 3.61693 99.4803 3.98428V8.25112H100.385V1.66718H99.4803L96.5416 5.93403C96.3155 6.30137 95.9764 6.89478 95.9764 6.89478H95.9482C95.9482 6.89478 96.0047 6.30137 96.0047 5.93403V1.66718H95.0722V8.25112H95.1004ZM104.793 1.35635C105.527 1.35635 106.177 0.932491 106.177 0.169545V0.028259H105.471V0.141286C105.471 0.565145 105.132 0.762945 104.821 0.762945C104.482 0.762945 104.171 0.565145 104.171 0.141286V0H103.408V0.141286C103.408 0.93249 104.086 1.35635 104.793 1.35635ZM102.137 8.25112H103.041L105.979 3.98428C106.206 3.61693 106.516 3.02353 106.516 3.02353H106.545C106.545 3.02353 106.488 3.61693 106.488 3.98428V8.25112H107.392V1.66718H106.488L103.549 5.93403C103.323 6.30137 102.984 6.89478 102.984 6.89478H102.956C102.956 6.89478 103.012 6.30137 103.012 5.93403V1.66718H102.08V8.25112H102.137ZM42.0333 19.4693H42.9658V13.6765H45.6785V12.8853H42.0333V19.4693ZM45.9893 16.1349C45.9893 18.0846 47.4869 19.5823 49.3802 19.5823C51.3017 19.5823 52.7711 18.0564 52.7711 16.1349C52.7711 14.2417 51.3017 12.7723 49.3802 12.7723C47.4587 12.7723 45.9611 14.2417 45.9893 16.1349ZM46.9218 16.1349C46.9218 14.6938 47.9956 13.62 49.3519 13.62C50.7083 13.62 51.7821 14.722 51.7821 16.1349C51.7821 17.6043 50.7083 18.7346 49.3519 18.7346C48.0238 18.7346 46.9218 17.6043 46.9218 16.1349ZM53.6753 16.1349C53.6753 18.0846 55.0034 19.5823 57.0662 19.5823C58.2247 19.5823 59.0442 19.1019 59.6093 18.5368L59.1289 17.8869C58.5921 18.4237 57.8291 18.7346 57.0944 18.7346C55.5685 18.7346 54.636 17.5195 54.636 16.1349C54.636 14.7503 55.5403 13.62 57.0662 13.62C57.7443 13.62 58.479 13.9026 58.9594 14.3264L59.4398 13.62C58.8181 13.0266 57.8856 12.744 57.0379 12.744C55.0599 12.7723 53.6753 14.2417 53.6753 16.1349ZM60.5983 19.1584C60.9657 19.4127 61.3613 19.5823 61.8134 19.5823C62.6328 19.5823 63.0567 18.9324 63.311 18.2542L65.4021 12.8571H64.4413L63.2262 16.1914C63.085 16.587 62.9437 17.0391 62.9437 17.0391H62.9154C62.9154 17.0391 62.7459 16.587 62.5481 16.1632L60.9374 12.8571H59.9201L62.5198 18.0281C62.3503 18.4803 62.1525 18.7628 61.7851 18.7628C61.4743 18.7628 61.1917 18.565 61.0222 18.4237L60.5983 19.1584ZM66.7302 18.678C67.4931 17.4912 67.6626 15.7393 67.6626 14.2982V13.6765H69.7254V18.678H66.7302ZM65.1195 18.678V20.7973H65.9672V19.4975H70.5731V20.7973H71.3926V18.678H70.6579V12.8853H66.7867V14.2417C66.7867 15.6828 66.6736 17.4065 65.7411 18.678H65.1195ZM71.9295 19.4693H72.862L73.5119 17.576H75.9985L76.6484 19.4693H77.6092L75.2356 12.8853H74.2466L71.9295 19.4693ZM73.7662 16.8131L74.5009 14.722C74.6139 14.3829 74.7552 13.7895 74.7552 13.7895H74.7835C74.7835 13.7895 74.9248 14.3829 75.0378 14.722L75.7725 16.8131H73.7662ZM78.6265 19.4693H79.5589V17.0391H81.0566C82.2716 17.0391 83.1194 16.1914 83.1194 14.9481C83.1194 13.7048 82.2716 12.8853 81.0566 12.8853H78.6265V19.4693ZM79.5589 16.2479V13.7048H80.9153C81.6782 13.7048 82.1869 14.1852 82.1869 14.9764C82.1869 15.7676 81.6782 16.2762 80.9153 16.2762L79.5589 16.2479ZM83.8823 16.1349C83.8823 18.0846 85.2104 19.5823 87.2732 19.5823C88.4317 19.5823 89.2512 19.1019 89.8163 18.5368L89.3077 17.8869C88.7708 18.4237 88.0079 18.7346 87.2732 18.7346C85.7473 18.7346 84.8148 17.5195 84.8148 16.1349C84.8148 14.7503 85.719 13.62 87.2449 13.62C87.9231 13.62 88.6578 13.9026 89.1382 14.3264L89.6185 13.62C88.9969 13.0266 88.0644 12.744 87.2167 12.744C85.2669 12.7723 83.8823 14.2417 83.8823 16.1349ZM92.529 19.4693H93.4333V13.6765H95.6939V12.8853H90.2402V13.6765H92.5008V19.4693H92.529ZM96.7394 19.4693H99.113C100.272 19.4693 101.232 18.8476 101.232 17.6043C101.232 16.8696 100.837 16.2197 100.13 15.9936V15.9654C100.639 15.711 100.95 15.2024 100.95 14.5525C100.95 13.4787 100.158 12.8571 99.0282 12.8571H96.7111V19.4693H96.7394ZM97.6719 15.6545V13.6765H99.0565C99.6781 13.6765 100.045 14.0721 100.045 14.6373C100.045 15.2024 99.6781 15.6263 99.0847 15.6263L97.6719 15.6545ZM97.6719 18.678V16.4175H99.1695C99.8477 16.4175 100.3 16.8696 100.3 17.5478C100.3 18.2259 99.8759 18.678 99.1695 18.678H97.6719ZM102.56 19.4693H106.573V18.678H103.493V16.5588H105.866V15.7676H103.493V13.7048H106.403V12.9136H102.56V19.4693ZM107.844 19.4693H108.777V16.587H112.196V19.4693H113.1V12.8853H112.196V15.7676H108.777V12.8571H107.844V19.4693ZM114.852 19.4693H115.785V16.587H119.204V19.4693H120.108V12.8853H119.204V15.7676H115.785V12.8571H114.852V19.4693ZM127.088 19.4693H127.992V12.8853H127.088V19.4693ZM121.86 19.4693H124.177C125.336 19.4693 126.127 18.6498 126.127 17.4347C126.127 16.1066 125.279 15.372 124.121 15.372H122.764V12.8853H121.832V19.4693H121.86ZM122.793 18.678V16.1632H124.036C124.771 16.1632 125.223 16.6718 125.223 17.4347C125.223 18.1977 124.771 18.678 124.036 18.678H122.793ZM132.428 12.5745C133.163 12.5745 133.813 12.1506 133.813 11.3877V11.2464H133.078V11.3594C133.078 11.7833 132.739 11.9811 132.4 11.9811C132.061 11.9811 131.75 11.7833 131.75 11.3594V11.2181H131.015V11.3594C131.044 12.1506 131.694 12.5745 132.428 12.5745ZM129.744 19.4693H130.648L133.587 15.2024C133.813 14.8351 134.124 14.2417 134.124 14.2417H134.152C134.152 14.2417 134.095 14.8351 134.095 15.2024V19.4693H135V12.8853H134.095L131.185 17.1522C130.959 17.5195 130.62 18.1129 130.62 18.1129H130.592C130.592 18.1129 130.648 17.5195 130.648 17.1522V12.8571H129.716V19.4693H129.744ZM41.6377 27.353C41.6377 29.2745 42.9658 30.8004 45.0286 30.8004C46.1871 30.8004 47.0066 30.32 47.5717 29.7549L47.0631 29.105C46.5262 29.6419 45.7633 29.9527 45.0286 29.9527C43.5027 29.9527 42.5702 28.7376 42.5702 27.353C42.5702 25.9684 43.4744 24.8381 45.0003 24.8381C45.6785 24.8381 46.4132 25.1207 46.8935 25.5446L47.3739 24.8381C46.7523 24.2447 45.8198 23.9622 44.9721 23.9622C43.0223 23.9904 41.6377 25.4315 41.6377 27.353ZM48.1651 27.353C48.1651 29.3028 49.6628 30.8004 51.556 30.8004C53.4492 30.8004 54.9469 29.2745 54.9469 27.353C54.9469 25.4598 53.4775 23.9904 51.556 23.9904C49.6345 23.9904 48.1651 25.4598 48.1651 27.353ZM49.0976 27.353C49.0976 25.9119 50.1714 24.8381 51.5277 24.8381C52.8841 24.8381 53.9579 25.9402 53.9579 27.353C53.9579 28.8224 52.8841 29.9527 51.5277 29.9527C50.1996 29.9527 49.0976 28.8224 49.0976 27.353ZM56.2467 30.6874H61.2482V31.9872H62.0677V29.8962H61.3048V24.1034H60.3723V29.8962H57.1509V24.1034H56.2184V30.6874H56.2467ZM63.3393 30.6874H64.2435L67.1823 26.4205C67.4083 26.0532 67.7474 25.4598 67.7474 25.4598H67.7757C67.7757 25.4598 67.7192 26.0532 67.7192 26.4205V30.6874H68.6234V24.1034H67.7192L64.7804 28.3703C64.5543 28.7376 64.2152 29.331 64.2152 29.331H64.187C64.187 29.331 64.2435 28.7376 64.2435 28.3703V24.0752H63.311V30.6874H63.3393ZM69.6406 30.6874H70.5731L71.2231 28.7942H73.7097L74.3596 30.6874H75.3204L72.9468 24.1034H71.9577L69.6406 30.6874ZM71.4774 28.0312L72.2121 25.9402C72.3251 25.6011 72.4664 25.0077 72.4664 25.0077H72.4946C72.4946 25.0077 72.6359 25.6011 72.7489 25.9402L73.4836 28.0312H71.4774ZM75.6029 29.9244V30.7722C77.4114 30.6591 77.9765 28.8507 77.9765 25.6576V24.8946H80.0111V30.6874H80.9436V24.1034H77.1006V25.6576C77.1006 28.342 76.705 29.7832 75.6029 29.9244ZM82.6955 30.6874H85.0691C86.2277 30.6874 87.0471 29.8679 87.0471 28.6529C87.0471 27.3248 86.1994 26.5901 85.0409 26.5901H83.628V24.1034H82.6955V30.6874ZM83.5997 29.8962V27.3813H84.8713C85.606 27.3813 86.0581 27.8899 86.0581 28.6529C86.0581 29.4158 85.606 29.8962 84.8713 29.8962H83.5997ZM88.1774 30.6874H89.1099V27.8052H92.529V30.6874H93.4333V24.1034H92.529V27.0139H89.1099V24.1034H88.1774V30.6874ZM100.413 30.6874H101.317V24.1034H100.413V30.6874ZM95.2135 30.6874H97.5306C98.6891 30.6874 99.4803 29.8679 99.4803 28.6529C99.4803 27.3248 98.6326 26.5901 97.4741 26.5901H96.1177V24.1034H95.2135V30.6874ZM96.1177 29.8962V27.3813H97.361C98.0957 27.3813 98.5478 27.8899 98.5478 28.6529C98.5478 29.4158 98.0957 29.8962 97.361 29.8962H96.1177ZM105.753 23.7926C106.488 23.7926 107.138 23.3688 107.138 22.6058V22.4645H106.432V22.5776C106.432 23.0014 106.093 23.1992 105.753 23.1992C105.414 23.1992 105.104 23.0014 105.104 22.5776V22.4363H104.369V22.5776C104.369 23.3688 105.047 23.7926 105.753 23.7926ZM103.097 30.6874H104.001L106.94 26.4205C107.166 26.0532 107.477 25.4598 107.477 25.4598H107.505C107.505 25.4598 107.449 26.0532 107.449 26.4205V30.6874H108.353V24.1034H107.449L104.538 28.3703C104.312 28.7376 103.973 29.331 103.973 29.331H103.945C103.945 29.331 104.001 28.7376 104.001 28.3703V24.0752H103.069V30.6874H103.097ZM42.3159 41.5947C42.6832 41.849 43.0788 42.0186 43.5309 42.0186C44.3504 42.0186 44.7743 41.3686 45.0286 40.6905L47.1196 35.2933H46.1589L44.9438 38.6277C44.8025 39.0233 44.6612 39.4754 44.6612 39.4754H44.633C44.633 39.4754 44.4634 39.0233 44.2656 38.5994L42.655 35.2933H41.6377L44.2374 40.4644C44.0678 40.9165 43.87 41.1991 43.5027 41.1991C43.1918 41.1991 42.9093 41.0013 42.7397 40.86L42.3159 41.5947ZM48.0804 41.9055H49.0128V39.0233H52.432V41.9055H53.3362V35.3216H52.432V38.2321H49.0128V35.3216H48.0804V41.9055ZM55.0882 41.9055H55.9924L58.9311 37.6387C59.1572 37.2713 59.468 36.6779 59.468 36.6779H59.4963C59.4963 36.6779 59.4398 37.2713 59.4398 37.6387V41.9055H60.344V35.3216H59.4398L56.501 39.5884C56.275 39.9558 55.9359 40.5492 55.9359 40.5492H55.9076C55.9076 40.5492 55.9641 39.9558 55.9641 39.5884V35.2933H55.0882V41.9055ZM62.1242 41.9055H64.4978C65.6564 41.9055 66.6171 41.2839 66.6171 40.0405C66.6171 39.3059 66.2215 38.6559 65.5151 38.4299V38.4016C66.0237 38.1473 66.3345 37.6387 66.3345 36.9888C66.3345 35.915 65.5433 35.2933 64.4131 35.2933H62.096V41.9055H62.1242ZM63.0567 38.0908V36.1128H64.4413C65.063 36.1128 65.4303 36.5084 65.4303 37.0735C65.4303 37.6387 65.063 38.0625 64.4696 38.0625L63.0567 38.0908ZM63.0567 41.1143V38.8537H64.5543C65.2325 38.8537 65.6846 39.3059 65.6846 39.984C65.6846 40.6622 65.2608 41.1143 64.5543 41.1143H63.0567ZM67.9452 41.9055H71.9577V41.1143H68.8777V38.995H71.2513V38.2038H68.8777V36.1128H71.7882V35.3216H67.9452V41.9055ZM73.2293 41.9055H74.1618V39.4754H75.6594C76.8745 39.4754 77.7222 38.6277 77.7222 37.3844C77.7222 36.141 76.8745 35.3216 75.6594 35.3216H73.2293V41.9055ZM74.1618 38.6559V36.1128H75.5182C76.2811 36.1128 76.7897 36.5932 76.7897 37.3844C76.7897 38.1756 76.2811 38.6842 75.5182 38.6842L74.1618 38.6559ZM78.4852 38.5712C78.4852 40.4927 79.8133 42.0186 81.876 42.0186C83.0346 42.0186 83.854 41.5382 84.4192 40.973L83.9106 40.3231C83.3737 40.86 82.6107 41.1708 81.876 41.1708C80.3501 41.1708 79.4177 39.9558 79.4177 38.5712C79.4177 37.1866 80.3219 36.0563 81.8478 36.0563C82.526 36.0563 83.2606 36.3388 83.741 36.7627L84.2214 36.0563C83.5997 35.4346 82.6672 35.1803 81.8195 35.1803C79.8698 35.2086 78.4852 36.6497 78.4852 38.5712ZM85.5777 41.9055H86.482L89.4207 37.6387C89.6468 37.2713 89.9859 36.6779 89.9859 36.6779H90.0141C90.0141 36.6779 89.9576 37.2713 89.9576 37.6387V41.9055H90.8619V35.3216H89.9576L87.0189 39.5884C86.7928 39.9558 86.4537 40.5492 86.4537 40.5492H86.4255C86.4255 40.5492 86.482 39.9558 86.482 39.5884V35.2933H85.5495V41.9055H85.5777ZM94.1397 41.9055H95.0439V36.1128H97.3045V35.3216H91.8509V36.1128H94.1114V41.9055H94.1397ZM98.35 41.9055H102.363V41.1143H99.2825V38.995H101.656V38.2038H99.2825V36.1128H102.193V35.3216H98.35V41.9055ZM105.16 41.9055H106.064V36.1128H108.325V35.3216H102.871V36.1128H105.132V41.9055H105.16Z" fill="white"/>
<path fill-rule="evenodd" clip-rule="evenodd" d="M3.77323 19.4127C3.29285 20.1474 2.869 20.9103 2.61468 21.7298C2.36037 22.5775 2.24734 23.4535 2.19082 24.3295C2.13431 25.601 2.19082 26.9009 2.24734 28.1725C2.27559 28.7376 2.27559 29.331 2.27559 29.9244C2.27559 30.9699 2.30385 32.0437 2.30385 33.0892C2.30385 34.1347 2.30385 35.1803 2.33211 36.2258C2.33211 36.6779 2.33211 40.5491 2.33211 42.2163H0.156299C0.156299 40.4926 0.156299 36.7344 0.156299 36.254C0.156299 35.2085 0.12804 34.163 0.12804 33.1175C0.12804 32.072 0.128038 30.9982 0.0997812 29.9527C0.0997812 29.3875 0.0997838 28.8224 0.0715265 28.2855C-0.0132453 25.9684 -0.154533 23.3122 0.551899 21.0799C0.890986 20.0344 1.37136 19.1019 1.96476 18.1976C2.61468 17.2369 3.34937 16.5305 4.14057 15.6827L4.11232 15.6545C3.2646 14.3829 2.75597 12.8853 2.75597 11.2464C2.75597 6.89473 6.28812 3.36258 10.6397 3.36258C11.8831 3.36258 13.0416 3.64515 14.0589 4.15378C14.6805 3.13652 15.5283 2.26054 16.5173 1.58237C16.5455 1.55411 16.5738 1.55411 16.602 1.52585C16.6303 1.4976 16.6585 1.49759 16.6868 1.46934C17.8736 0.734647 19.2865 0.310791 20.8124 0.310791C25.164 0.310791 28.6961 3.84295 28.6961 8.19457C28.6961 10.5682 27.6506 12.7157 25.9552 14.1568L26.1247 14.3264C27.368 15.5415 28.4701 16.5587 29.4308 18.0281C30.0242 18.9323 30.5329 19.8648 30.8437 20.9103C31.5501 23.1427 31.4088 25.7988 31.3241 28.1159C31.2958 28.6811 31.2958 29.2462 31.2958 29.7831C31.2958 30.8286 31.2676 31.9024 31.2676 32.9479C31.2676 33.9935 31.2676 35.039 31.2393 36.0845C31.2393 36.6779 31.2393 41.3121 31.211 41.9055L31.1828 42.2446H29.007L29.0352 41.7925C29.0635 41.2273 29.0635 36.6214 29.0635 36.0562C29.0635 35.0107 29.0917 33.9652 29.0917 32.9197C29.0917 31.8742 29.0917 30.8004 29.12 29.7549C29.12 29.1897 29.12 28.5963 29.1483 28.0029C29.2048 26.7313 29.2613 25.4315 29.2048 24.1599C29.1765 23.284 29.0635 22.408 28.7809 21.5603C28.5266 20.7125 28.1027 19.9778 27.6224 19.2432C26.7464 17.9151 25.7291 16.9826 24.5988 15.9088C24.4293 15.7393 24.2597 15.5697 24.0902 15.4002C23.1012 15.8523 21.9709 16.1066 20.8124 16.1066C19.569 16.1066 18.4105 15.824 17.3932 15.3154C17.0824 15.824 16.7151 16.3327 16.2912 16.7565C18.7213 17.6325 20.445 19.9496 20.445 22.6623C20.445 24.4708 19.6821 26.1097 18.467 27.24C19.0604 27.8616 19.6256 28.5115 20.1342 29.3027C20.2755 29.5005 20.4168 29.7266 20.5298 29.9527C20.558 29.9809 20.558 30.0092 20.5863 30.0374C20.9819 30.7156 21.321 31.422 21.547 32.185C21.5753 32.2698 21.6036 32.3263 21.6036 32.411C21.8579 33.287 21.9144 34.0217 21.9427 34.9259C21.9427 35.1803 21.9427 35.4346 21.9427 35.7171L21.8296 42.2163H19.6256C19.6256 40.097 19.7386 37.7517 19.6821 35.6606C19.6538 34.1347 19.456 32.4393 18.2975 30.5743C18.2975 30.5461 18.2692 30.5461 18.2692 30.5178C17.7606 29.7266 17.1672 29.0767 16.5455 28.455C15.8108 28.7659 14.9914 28.9354 14.1154 28.9354C13.3807 28.9354 12.6743 28.8224 12.0244 28.5681C11.7983 28.7941 11.6005 29.0202 11.3744 29.2745C10.8941 29.8114 10.5267 30.32 10.1876 30.9417C9.25514 32.6654 9.08559 34.2195 9.02908 35.6606C8.97257 37.7517 9.08559 40.097 9.08559 42.2163H6.88153L6.7685 35.7171C6.74024 34.6434 6.7685 33.8522 6.99456 32.9197C7.24887 31.8459 7.64447 30.9134 8.18136 29.9527C8.32265 29.7266 8.46394 29.4723 8.63348 29.2462C9.0856 28.5681 9.53771 28.0029 10.0463 27.466C8.68999 26.3075 7.81402 24.5838 7.81402 22.6623C7.81402 21.3059 8.26613 20.0344 9.00082 18.9888C7.70099 18.7345 6.51418 18.1411 5.52518 17.3217C4.93178 17.9716 4.28186 18.6215 3.77323 19.4127ZM20.1624 13.8178C20.3885 13.846 20.6146 13.846 20.8124 13.846C21.9709 13.846 23.0729 13.4787 23.9772 12.8853C25.4748 11.868 26.4921 10.1443 26.4921 8.19457C26.4921 5.05801 23.9489 2.51486 20.8124 2.51486C19.7103 2.51486 18.6648 2.82569 17.7888 3.39083C17.7606 3.39083 17.7606 3.41909 17.7323 3.41909C16.9694 3.89946 16.3477 4.57764 15.8956 5.36884C17.5063 6.80996 18.4953 8.901 18.4953 11.2181C18.4953 11.9245 18.4105 12.5744 18.241 13.2244C18.8344 13.5352 19.4843 13.733 20.1624 13.8178ZM10.6397 5.56664C13.7763 5.56664 16.3195 8.1098 16.3195 11.2464C16.3195 13.6765 14.7936 15.7393 12.646 16.5587C12.42 16.6152 12.2222 16.6717 11.9961 16.7565C11.5722 16.8695 11.1201 16.9261 10.6397 16.9261C7.50319 16.9261 4.96003 14.3829 4.96003 11.2464C4.96003 8.08154 7.50319 5.56664 10.6397 5.56664ZM14.1719 18.4802C11.8831 18.4802 10.0181 20.3452 10.0181 22.634C10.0181 24.9229 11.8831 26.7879 14.1719 26.7879C16.4607 26.7879 18.3257 24.9229 18.3257 22.634C18.2975 20.3452 16.4607 18.4802 14.1719 18.4802Z" fill="white"/>
</svg>
