<svg width="26" height="27" viewBox="0 0 26 27" fill="none" xmlns="http://www.w3.org/2000/svg">
<path d="M12.9001 0.631348C5.89004 0.631348 0.209961 6.30919 0.209961 13.3165V13.3265C0.209961 20.3239 5.89004 26.0017 12.8901 26.0017H12.9001C19.9002 26.0017 25.5803 20.3239 25.5803 13.3265V13.3165C25.5803 6.30919 19.9002 0.631348 12.9001 0.631348ZM19.9102 18.3046L17.7602 18.3346C17.7602 18.3346 17.3002 18.4246 16.6902 18.0048C15.8902 17.455 15.1302 16.0155 14.5402 16.2054C13.9402 16.3954 13.9602 17.6849 13.9602 17.6849C13.9602 17.6849 13.9602 17.9648 13.8302 18.1047C13.6802 18.2647 13.3902 18.2946 13.3902 18.2946H12.4301C12.4301 18.2946 10.3101 18.4246 8.44008 16.4753C6.40005 14.3561 4.60003 10.1477 4.60003 10.1477C4.60003 10.1477 4.50002 9.86784 4.61003 9.73789C4.74003 9.58795 5.08003 9.57795 5.08003 9.57795L7.38007 9.56796C7.38007 9.56796 7.60007 9.60794 7.75007 9.7179C7.88007 9.80786 7.95007 9.9878 7.95007 9.9878C7.95007 9.9878 8.32008 10.9274 8.81009 11.7771C9.7701 13.4365 10.2201 13.7964 10.5401 13.6264C11.0201 13.3665 10.8701 11.2773 10.8701 11.2773C10.8701 11.2773 10.8801 10.5176 10.6301 10.1877C10.4401 9.92782 10.0801 9.84785 9.9201 9.82786C9.7901 9.80786 10.0001 9.50798 10.2801 9.37803C10.6901 9.1781 11.4201 9.16811 12.2901 9.16811C12.9601 9.1781 13.1602 9.21809 13.4202 9.27807C14.2102 9.46799 13.9402 10.2077 13.9402 11.977C13.9402 12.5468 13.8402 13.3465 14.2502 13.6064C14.4302 13.7164 14.8602 13.6264 15.9302 11.7971C16.4402 10.9274 16.8202 9.90783 16.8202 9.90783C16.8202 9.90783 16.9002 9.72789 17.0302 9.64792C17.1602 9.56796 17.3402 9.58795 17.3402 9.58795L19.7602 9.56796C19.7602 9.56796 20.4903 9.47799 20.6003 9.80787C20.7203 10.1477 20.3303 10.9574 19.3402 12.2769C17.7202 14.4361 17.5402 14.2362 18.8802 15.4857C20.1703 16.6753 20.4303 17.265 20.4803 17.335C21.0303 18.2347 19.9102 18.3046 19.9102 18.3046Z" fill="#00314F"/>
</svg>
