<svg width="26" height="27" viewBox="0 0 26 27" fill="none" xmlns="http://www.w3.org/2000/svg">
<g clip-path="url(#clip0)">
<path d="M11.3301 15.3256L15.0301 13.3963L11.3301 11.457V15.3256Z" fill="#00314F"/>
<path d="M12.6902 0.631348C5.68008 0.631348 0 6.30919 0 13.3165V13.3265C0 20.3239 5.68008 26.0017 12.6802 26.0017H12.6902C19.6903 26.0017 25.3704 20.3239 25.3704 13.3265V13.3165C25.3704 6.30919 19.6903 0.631348 12.6902 0.631348ZM19.5503 16.7252C19.3803 17.465 18.7703 18.0147 18.0403 18.0947C16.3102 18.2846 14.5502 18.2846 12.8002 18.2846C11.0502 18.2846 9.30014 18.2846 7.56011 18.0947C6.8301 18.0147 6.22009 17.465 6.05009 16.7252C5.81008 15.6656 5.81008 14.5061 5.81008 13.4165C5.81008 12.3269 5.81008 11.1673 6.06009 10.1078C6.23009 9.36803 6.8401 8.81824 7.57011 8.73827C9.30014 8.54834 11.0602 8.54834 12.8102 8.54834C14.5602 8.54834 16.3102 8.54834 18.0503 8.73827C18.7803 8.81824 19.3903 9.36803 19.5603 10.1078C19.8003 11.1673 19.8003 12.3269 19.8003 13.4165C19.7903 14.5161 19.7903 15.6756 19.5503 16.7252Z" fill="#00314F"/>
</g>
<defs>
<clipPath id="clip0">
<rect width="25.3704" height="25.3704" fill="white" transform="translate(0 0.631348)"/>
</clipPath>
</defs>
</svg>
