<svg width="26" height="27" fill="none" xmlns="http://www.w3.org/2000/svg"><path d="M13.32 15.491a2.17 2.17 0 100-4.34 2.17 2.17 0 000 4.34z" fill="#00314F"/><path d="M18.39 9.481c-.12-.3-.26-.52-.49-.75-.23-.23-.44-.37-.75-.49-.23-.09-.57-.2-1.21-.22-.69-.03-.89-.04-2.63-.04-1.74 0-1.94.01-2.63.04-.63.03-.98.13-1.21.22-.3.12-.52.26-.75.49-.23.23-.37.44-.49.75-.09.23-.2.57-.22 1.21-.03.69-.04.89-.04 2.63 0 1.74.01 1.94.04 2.63.03.63.13.98.22 1.21.12.3.26.52.49.75.23.23.44.37.75.49.23.09.57.2 1.21.22.69.03.89.04 2.63.04 1.74 0 1.94-.01 2.63-.04.63-.03.98-.13 1.21-.22.3-.12.52-.26.75-.49.23-.23.37-.44.49-.75.09-.23.2-.57.22-1.21.03-.69.04-.89.04-2.63 0-1.74-.01-1.94-.04-2.63-.03-.64-.13-.98-.22-1.21zm-5.07 7.18a3.34 3.34 0 11-.001-6.679 3.34 3.34 0 010 6.68zm3.47-6.03a.781.781 0 010-1.56.781.781 0 010 1.56z" fill="#00314F"/><path d="M13.32.631C6.31.631.63 6.311.63 13.321v.01c0 7 5.68 12.68 12.68 12.68h.01c7 0 12.68-5.68 12.68-12.68v-.01C26 6.312 20.32.632 13.32.632zm6.46 15.37c-.03.69-.14 1.17-.3 1.58-.17.43-.39.79-.75 1.15-.36.36-.72.58-1.15.75-.41.16-.89.27-1.58.3-.69.03-.92.04-2.68.04-1.76 0-1.99-.01-2.68-.04-.69-.03-1.17-.14-1.58-.3-.43-.17-.79-.39-1.15-.75-.36-.36-.58-.72-.75-1.15-.16-.41-.27-.89-.3-1.58-.03-.69-.04-.92-.04-2.68 0-1.77.01-1.99.04-2.68.03-.69.14-1.17.3-1.58.17-.43.39-.79.75-1.15.36-.36.72-.58 1.15-.75.41-.16.89-.27 1.58-.3.69-.03.92-.04 2.68-.04 1.76 0 1.99.01 2.68.04.69.03 1.17.14 1.58.3.43.17.79.39 1.15.75.36.36.58.72.75 1.15.16.41.27.89.3 1.58.03.69.04.92.04 2.68 0 1.76 0 1.99-.04 2.68z" fill="#00314F"/></svg>