<svg width="26" height="27" fill="none" xmlns="http://www.w3.org/2000/svg"><path d="M12.9.631C5.89.631.21 6.31.21 13.316v.01c0 6.998 5.68 12.676 12.68 12.676h.01c7 0 12.68-5.678 12.68-12.675v-.01C25.58 6.308 19.9.63 12.9.63zm7.01 17.674l-2.15.03s-.46.09-1.07-.33c-.8-.55-1.56-1.99-2.15-1.8-.6.19-.58 1.48-.58 1.48s0 .28-.13.42c-.15.16-.44.19-.44.19h-.96s-2.12.13-3.99-1.82C6.4 14.356 4.6 10.148 4.6 10.148s-.1-.28.01-.41c.13-.15.47-.16.47-.16l2.3-.01s.22.04.37.15c.13.09.2.27.2.27s.37.94.86 1.79c.96 1.659 1.41 2.018 1.73 1.848.48-.26.33-2.349.33-2.349s.01-.76-.24-1.09c-.19-.26-.55-.34-.71-.36-.13-.02.08-.319.36-.449.41-.2 1.14-.21 2.01-.21.67.01.87.05 1.13.11.79.19.52.93.52 2.699 0 .57-.1 1.37.31 1.63.18.11.61.02 1.68-1.81.51-.87.89-1.89.89-1.89s.08-.18.21-.26c.13-.079.31-.06.31-.06l2.42-.019s.73-.09.84.24c.12.34-.27 1.15-1.26 2.469-1.62 2.16-1.8 1.96-.46 3.209 1.29 1.19 1.55 1.779 1.6 1.849.55.9-.57.97-.57.97z" fill="#00314F"/></svg>