<svg width="26" height="27" fill="none" xmlns="http://www.w3.org/2000/svg"><g clip-path="url(#clip0)" fill="#00314F"><path d="M11.33 15.326l3.7-1.93-3.7-1.939v3.869z"/><path d="M12.69.631C5.68.631 0 6.31 0 13.316v.01c0 6.998 5.68 12.676 12.68 12.676h.01c7 0 12.68-5.678 12.68-12.675v-.01C25.37 6.308 19.69.63 12.69.63zm6.86 16.094c-.17.74-.78 1.29-1.51 1.37-1.73.19-3.49.19-5.24.19s-3.5 0-5.24-.19c-.73-.08-1.34-.63-1.51-1.37-.24-1.06-.24-2.219-.24-3.309 0-1.09 0-2.249.25-3.308.17-.74.78-1.29 1.51-1.37 1.73-.19 3.49-.19 5.24-.19s3.5 0 5.24.19c.73.08 1.34.63 1.51 1.37.24 1.06.24 2.219.24 3.308-.01 1.1-.01 2.26-.25 3.31z"/></g><defs><clipPath id="clip0"><path fill="#fff" transform="translate(0 .631)" d="M0 0h25.37v25.37H0z"/></clipPath></defs></svg>